{
	"asset":{
		"generator":"Khronos glTF Blender I/O v3.6.27",
		"version":"2.0"
	},
	"scene":0,
	"scenes":[
		{
			"name":"Scene",
			"nodes":[
				0,
				1,
				4,
				5,
				6,
				7,
				8,
				9
			]
		}
	],
	"nodes":[
		{
			"mesh":0,
			"name":"Handle",
			"rotation":[
				-0.70710688829422,
				0,
				0,
				0.7071066498756409
			],
			"translation":[
				-3.9416134357452393,
				0,
				-6.450118962675333e-05
			]
		},
		{
			"mesh":1,
			"name":"Guard_End_Piece",
			"rotation":[
				-0.70710688829422,
				0,
				0,
				0.7071066498756409
			],
			"translation":[
				-4.332090377807617,
				0,
				0
			]
		},
		{
			"mesh":2,
			"name":"Guard_Scaabbard"
		},
		{
			"mesh":3,
			"name":"Guard_Scaabbard_2"
		},
		{
			"children":[
				2,
				3
			],
			"mesh":4,
			"name":"Sheath",
			"rotation":[
				0,
				0,
				-0.7071065902709961,
				0.7071069478988647
			],
			"translation":[
				-1.086748719215393,
				0,
				-0.6000000238418579
			]
		},
		{
			"mesh":5,
			"name":"Guard_Handguard",
			"rotation":[
				0,
				0,
				-0.7071065902709961,
				0.7071069478988647
			],
			"translation":[
				-1.2000000476837158,
				0,
				0
			]
		},
		{
			"mesh":6,
			"name":"Pommel",
			"rotation":[
				-0.70710688829422,
				0,
				0,
				0.7071066498756409
			],
			"translation":[
				-2.748426914215088,
				0,
				0.001822875114157796
			]
		},
		{
			"mesh":7,
			"name":"Guard_Hilt",
			"rotation":[
				-0.70710688829422,
				0,
				0,
				0.7071066498756409
			],
			"translation":[
				1.830277681350708,
				0,
				0
			]
		},
		{
			"mesh":8,
			"name":"Guard_Hilt_2",
			"rotation":[
				0,
				0.03381988778710365,
				0,
				0.9994280338287354
			],
			"translation":[
				1.2827571630477905,
				0,
				-0.09191838651895523
			]
		},
		{
			"mesh":9,
			"name":"Blade",
			"rotation":[
				0,
				0.03381988778710365,
				0,
				0.9994280338287354
			],
			"translation":[
				1.2827571630477905,
				0,
				-0.09191838651895523
			]
		}
	],
	"meshes":[
		{
			"name":"Cube.025",
			"primitives":[
				{
					"attributes":{
						"POSITION":0,
						"NORMAL":1,
						"TEXCOORD_0":2
					},
					"indices":3
				}
			]
		},
		{
			"name":"Cube.024",
			"primitives":[
				{
					"attributes":{
						"POSITION":4,
						"NORMAL":5,
						"TEXCOORD_0":6
					},
					"indices":7
				}
			]
		},
		{
			"name":"Plane.016",
			"primitives":[
				{
					"attributes":{
						"POSITION":8,
						"NORMAL":9,
						"TEXCOORD_0":10
					},
					"indices":11
				}
			]
		},
		{
			"name":"Plane.000",
			"primitives":[
				{
					"attributes":{
						"POSITION":12,
						"NORMAL":13,
						"TEXCOORD_0":14
					},
					"indices":15
				}
			]
		},
		{
			"name":"Scabbard",
			"primitives":[
				{
					"attributes":{
						"POSITION":16,
						"NORMAL":17,
						"TEXCOORD_0":18
					},
					"indices":19
				}
			]
		},
		{
			"name":"Cylinder.001",
			"primitives":[
				{
					"attributes":{
						"POSITION":20,
						"NORMAL":21,
						"TEXCOORD_0":22
					},
					"indices":23
				}
			]
		},
		{
			"name":"Cube.002",
			"primitives":[
				{
					"attributes":{
						"POSITION":24,
						"NORMAL":25,
						"TEXCOORD_0":26
					},
					"indices":27
				}
			]
		},
		{
			"name":"Cube.008",
			"primitives":[
				{
					"attributes":{
						"POSITION":28,
						"NORMAL":29,
						"TEXCOORD_0":30
					},
					"indices":31
				}
			]
		},
		{
			"name":"Cube.012",
			"primitives":[
				{
					"attributes":{
						"POSITION":32,
						"NORMAL":33,
						"TEXCOORD_0":34
					},
					"indices":35
				}
			]
		},
		{
			"name":"Cube.001",
			"primitives":[
				{
					"attributes":{
						"POSITION":36,
						"NORMAL":37,
						"TEXCOORD_0":38
					},
					"indices":39
				}
			]
		}
	],
	"accessors":[
		{
			"bufferView":0,
			"componentType":5126,
			"count":25440,
			"max":[
				2.387415647506714,
				0.19710177183151245,
				0.13900192081928253
			],
			"min":[
				-0.34239473938941956,
				-0.19710177183151245,
				-0.13900192081928253
			],
			"type":"VEC3"
		},
		{
			"bufferView":1,
			"componentType":5126,
			"count":25440,
			"type":"VEC3"
		},
		{
			"bufferView":2,
			"componentType":5126,
			"count":25440,
			"type":"VEC2"
		},
		{
			"bufferView":3,
			"componentType":5123,
			"count":138240,
			"type":"SCALAR"
		},
		{
			"bufferView":4,
			"componentType":5126,
			"count":2065,
			"max":[
				0.04802989214658737,
				0.2053038477897644,
				0.14074485003948212
			],
			"min":[
				-0.036001309752464294,
				-0.2053038477897644,
				-0.14074485003948212
			],
			"type":"VEC3"
		},
		{
			"bufferView":5,
			"componentType":5126,
			"count":2065,
			"type":"VEC3"
		},
		{
			"bufferView":6,
			"componentType":5126,
			"count":2065,
			"type":"VEC2"
		},
		{
			"bufferView":7,
			"componentType":5123,
			"count":12240,
			"type":"SCALAR"
		},
		{
			"bufferView":8,
			"componentType":5126,
			"count":1800,
			"max":[
				0.08755983412265778,
				7.662310600280762,
				-0.6985490322113037
			],
			"min":[
				-0.08755983412265778,
				7.404277324676514,
				-1.1637808084487915
			],
			"type":"VEC3"
		},
		{
			"bufferView":9,
			"componentType":5126,
			"count":1800,
			"type":"VEC3"
		},
		{
			"bufferView":10,
			"componentType":5126,
			"count":1800,
			"type":"VEC2"
		},
		{
			"bufferView":11,
			"componentType":5123,
			"count":6636,
			"type":"SCALAR"
		},
		{
			"bufferView":12,
			"componentType":5126,
			"count":1200,
			"max":[
				0.08860823512077332,
				0.1867215633392334,
				0.222685769200325
			],
			"min":[
				-0.08860823512077332,
				-0.01019075233489275,
				-0.22268587350845337
			],
			"type":"VEC3"
		},
		{
			"bufferView":13,
			"componentType":5126,
			"count":1200,
			"type":"VEC3"
		},
		{
			"bufferView":14,
			"componentType":5126,
			"count":1200,
			"type":"VEC2"
		},
		{
			"bufferView":15,
			"componentType":5123,
			"count":6120,
			"type":"SCALAR"
		},
		{
			"bufferView":16,
			"componentType":5126,
			"count":1334,
			"max":[
				0.08296819776296616,
				7.4936723709106445,
				0.21072061359882355
			],
			"min":[
				-0.08296819776296616,
				0.18672147393226624,
				-1.1209601163864136
			],
			"type":"VEC3"
		},
		{
			"bufferView":17,
			"componentType":5126,
			"count":1334,
			"type":"VEC3"
		},
		{
			"bufferView":18,
			"componentType":5126,
			"count":1334,
			"type":"VEC2"
		},
		{
			"bufferView":19,
			"componentType":5123,
			"count":7128,
			"type":"SCALAR"
		},
		{
			"bufferView":20,
			"componentType":5126,
			"count":9568,
			"max":[
				0.376312255859375,
				0.04514997452497482,
				0.376312255859375
			],
			"min":[
				-0.376312255859375,
				-0.04514997452497482,
				-0.376312255859375
			],
			"type":"VEC3"
		},
		{
			"bufferView":21,
			"componentType":5126,
			"count":9568,
			"type":"VEC3"
		},
		{
			"bufferView":22,
			"componentType":5126,
			"count":9568,
			"type":"VEC2"
		},
		{
			"bufferView":23,
			"componentType":5123,
			"count":45696,
			"type":"SCALAR"
		},
		{
			"bufferView":24,
			"componentType":5126,
			"count":96,
			"max":[
				1.1970603466033936,
				0.1894863247871399,
				0.13014428317546844
			],
			"min":[
				-1.5358805656433105,
				-0.1894863247871399,
				-0.13014428317546844
			],
			"type":"VEC3"
		},
		{
			"bufferView":25,
			"componentType":5126,
			"count":96,
			"type":"VEC3"
		},
		{
			"bufferView":26,
			"componentType":5126,
			"count":96,
			"type":"VEC2"
		},
		{
			"bufferView":27,
			"componentType":5123,
			"count":288,
			"type":"SCALAR"
		},
		{
			"bufferView":28,
			"componentType":5126,
			"count":1440,
			"max":[
				-3.0729739665985107,
				0.20874051749706268,
				0.14433854818344116
			],
			"min":[
				-3.3846311569213867,
				-0.20874051749706268,
				-0.14433854818344116
			],
			"type":"VEC3"
		},
		{
			"bufferView":29,
			"componentType":5126,
			"count":1440,
			"type":"VEC3"
		},
		{
			"bufferView":30,
			"componentType":5126,
			"count":1440,
			"type":"VEC2"
		},
		{
			"bufferView":31,
			"componentType":5123,
			"count":8352,
			"type":"SCALAR"
		},
		{
			"bufferView":32,
			"componentType":5126,
			"count":2175,
			"max":[
				-2.2023143768310547,
				0.08707264810800552,
				0.1119854524731636
			],
			"min":[
				-2.456422805786133,
				-0.08707264810800552,
				-0.24541404843330383
			],
			"type":"VEC3"
		},
		{
			"bufferView":33,
			"componentType":5126,
			"count":2175,
			"type":"VEC3"
		},
		{
			"bufferView":34,
			"componentType":5126,
			"count":2175,
			"type":"VEC2"
		},
		{
			"bufferView":35,
			"componentType":5123,
			"count":8748,
			"type":"SCALAR"
		},
		{
			"bufferView":36,
			"componentType":5126,
			"count":4614,
			"max":[
				4.956080436706543,
				0.07558499276638031,
				0.15793584287166595
			],
			"min":[
				-2.2278435230255127,
				-0.07558499276638031,
				-0.6028257012367249
			],
			"type":"VEC3"
		},
		{
			"bufferView":37,
			"componentType":5126,
			"count":4614,
			"type":"VEC3"
		},
		{
			"bufferView":38,
			"componentType":5126,
			"count":4614,
			"type":"VEC2"
		},
		{
			"bufferView":39,
			"componentType":5123,
			"count":27264,
			"type":"SCALAR"
		}
	],
	"bufferViews":[
		{
			"buffer":0,
			"byteLength":305280,
			"byteOffset":0,
			"target":34962
		},
		{
			"buffer":0,
			"byteLength":305280,
			"byteOffset":305280,
			"target":34962
		},
		{
			"buffer":0,
			"byteLength":203520,
			"byteOffset":610560,
			"target":34962
		},
		{
			"buffer":0,
			"byteLength":276480,
			"byteOffset":814080,
			"target":34963
		},
		{
			"buffer":0,
			"byteLength":24780,
			"byteOffset":1090560,
			"target":34962
		},
		{
			"buffer":0,
			"byteLength":24780,
			"byteOffset":1115340,
			"target":34962
		},
		{
			"buffer":0,
			"byteLength":16520,
			"byteOffset":1140120,
			"target":34962
		},
		{
			"buffer":0,
			"byteLength":24480,
			"byteOffset":1156640,
			"target":34963
		},
		{
			"buffer":0,
			"byteLength":21600,
			"byteOffset":1181120,
			"target":34962
		},
		{
			"buffer":0,
			"byteLength":21600,
			"byteOffset":1202720,
			"target":34962
		},
		{
			"buffer":0,
			"byteLength":14400,
			"byteOffset":1224320,
			"target":34962
		},
		{
			"buffer":0,
			"byteLength":13272,
			"byteOffset":1238720,
			"target":34963
		},
		{
			"buffer":0,
			"byteLength":14400,
			"byteOffset":1251992,
			"target":34962
		},
		{
			"buffer":0,
			"byteLength":14400,
			"byteOffset":1266392,
			"target":34962
		},
		{
			"buffer":0,
			"byteLength":9600,
			"byteOffset":1280792,
			"target":34962
		},
		{
			"buffer":0,
			"byteLength":12240,
			"byteOffset":1290392,
			"target":34963
		},
		{
			"buffer":0,
			"byteLength":16008,
			"byteOffset":1302632,
			"target":34962
		},
		{
			"buffer":0,
			"byteLength":16008,
			"byteOffset":1318640,
			"target":34962
		},
		{
			"buffer":0,
			"byteLength":10672,
			"byteOffset":1334648,
			"target":34962
		},
		{
			"buffer":0,
			"byteLength":14256,
			"byteOffset":1345320,
			"target":34963
		},
		{
			"buffer":0,
			"byteLength":114816,
			"byteOffset":1359576,
			"target":34962
		},
		{
			"buffer":0,
			"byteLength":114816,
			"byteOffset":1474392,
			"target":34962
		},
		{
			"buffer":0,
			"byteLength":76544,
			"byteOffset":1589208,
			"target":34962
		},
		{
			"buffer":0,
			"byteLength":91392,
			"byteOffset":1665752,
			"target":34963
		},
		{
			"buffer":0,
			"byteLength":1152,
			"byteOffset":1757144,
			"target":34962
		},
		{
			"buffer":0,
			"byteLength":1152,
			"byteOffset":1758296,
			"target":34962
		},
		{
			"buffer":0,
			"byteLength":768,
			"byteOffset":1759448,
			"target":34962
		},
		{
			"buffer":0,
			"byteLength":576,
			"byteOffset":1760216,
			"target":34963
		},
		{
			"buffer":0,
			"byteLength":17280,
			"byteOffset":1760792,
			"target":34962
		},
		{
			"buffer":0,
			"byteLength":17280,
			"byteOffset":1778072,
			"target":34962
		},
		{
			"buffer":0,
			"byteLength":11520,
			"byteOffset":1795352,
			"target":34962
		},
		{
			"buffer":0,
			"byteLength":16704,
			"byteOffset":1806872,
			"target":34963
		},
		{
			"buffer":0,
			"byteLength":26100,
			"byteOffset":1823576,
			"target":34962
		},
		{
			"buffer":0,
			"byteLength":26100,
			"byteOffset":1849676,
			"target":34962
		},
		{
			"buffer":0,
			"byteLength":17400,
			"byteOffset":1875776,
			"target":34962
		},
		{
			"buffer":0,
			"byteLength":17496,
			"byteOffset":1893176,
			"target":34963
		},
		{
			"buffer":0,
			"byteLength":55368,
			"byteOffset":1910672,
			"target":34962
		},
		{
			"buffer":0,
			"byteLength":55368,
			"byteOffset":1966040,
			"target":34962
		},
		{
			"buffer":0,
			"byteLength":36912,
			"byteOffset":2021408,
			"target":34962
		},
		{
			"buffer":0,
			"byteLength":54528,
			"byteOffset":2058320,
			"target":34963
		}
	],
	"buffers":[
		{
			"byteLength":2112848,
			"uri":"data:application/octet-stream;base64,"
		}
	]
}
