<svg width="24" height="24" viewBox="0 0 24 24" fill="none" xmlns="http://www.w3.org/2000/svg">
<path d="M1.17188 1.6106V3.52169L3.89062 5.55935H20.1094L22.8281 3.52169V1.6106L19.65 4.1545H4.35187L1.17188 1.6106ZM21.75 5.38122L20.3906 6.4031H20.3438V22.3875H21.75V5.38122ZM2.34375 5.45622V22.3875H3.75V6.4031H3.60938L2.34375 5.45622ZM6.31406 6.4031L7.55156 9.49685C7.76719 9.29997 8.00156 9.11716 8.24531 8.9531L7.22344 6.4031H6.31406ZM16.7766 6.4031L15.7547 8.9531C15.9984 9.11716 16.2328 9.29997 16.4484 9.49685L17.6859 6.4031H16.7766Z" fill="black"/>
<path d="M12 8.6531C8.90156 8.6531 6.42188 10.9922 6.42188 13.8562C6.42188 16.7203 8.90156 19.0593 12 19.0593C15.0984 19.0593 17.5781 16.7203 17.5781 13.8562C17.5781 10.9922 15.0984 8.6531 12 8.6531Z" fill="black"/>
</svg>
