<svg width="24" height="24" viewBox="0 0 24 24" fill="none" xmlns="http://www.w3.org/2000/svg">
<path d="M1.17188 1.6106V3.52169L3.89062 5.55935H20.1094L22.8281 3.52169V1.6106L19.65 4.1545H4.35187L1.17188 1.6106ZM21.75 5.38122L20.3906 6.4031H20.3438V22.3875H21.75V5.38122ZM2.34375 5.45622V22.3875H3.75V6.4031H3.60938L2.34375 5.45622ZM6.31406 6.4031L7.55156 9.49685C7.76719 9.29997 8.00156 9.11716 8.24531 8.9531L7.22344 6.4031H6.31406ZM16.7766 6.4031L15.7547 8.9531C15.9984 9.11716 16.2328 9.29997 16.4484 9.49685L17.6859 6.4031H16.7766ZM12 8.6531C8.90156 8.6531 6.42188 10.9922 6.42188 13.8562C6.42188 16.7203 8.90156 19.0593 12 19.0593C12.7125 19.0593 13.3875 18.9375 14.0109 18.7125L10.9125 14.6156C10.3547 14.5922 9.81562 14.3297 9.45469 13.8562C8.81719 13.0172 8.98594 11.8031 9.82969 11.1656C10.6734 10.5281 11.8828 10.6968 12.5203 11.5406C12.8813 12.014 12.9844 12.6093 12.8531 13.1484L16.0781 17.4093C17.0109 16.4765 17.5781 15.225 17.5781 13.8562C17.5781 10.9922 15.0984 8.6531 12 8.6531ZM10.9828 11.6156C10.7578 11.6203 10.5328 11.6906 10.3359 11.8406C9.85781 12.2015 9.76875 12.8718 10.1297 13.35C10.4906 13.8281 11.1609 13.9218 11.6391 13.5609C12.1172 13.1953 12.2109 12.525 11.85 12.0468C11.6344 11.7609 11.3109 11.6156 10.9828 11.6156ZM12.4266 13.9734C12.3422 14.0672 12.2531 14.1515 12.15 14.2312C12.0469 14.3109 11.9391 14.3718 11.8266 14.4281L17.0297 21.3047L17.6297 20.8547L12.4266 13.9734Z" fill="black"/>
</svg>
