<svg width="24" height="24" viewBox="0 0 24 24" fill="none" xmlns="http://www.w3.org/2000/svg">
<path d="M11.5781 0.9375V4.07812H12.4219V0.9375H11.5781ZM19.7642 3.92048L17.7017 5.98298L18.2983 6.57952L20.3608 4.51702L19.7642 3.92048ZM4.23577 4.01423L3.63923 4.61077L5.70173 6.67327L6.29827 6.07673L4.23577 4.01423ZM9.42188 4.92188V6.32812H14.5781V4.92188H9.42188ZM9 7.17188C8.39062 7.17188 7.71342 7.49634 7.20759 7.91784C7.10075 8.00692 6.99922 8.10218 6.90352 8.20312H13.5V9.04688H6.42188V11.2031H13.5V12.0469H6.42188V14.2031H13.5V15.0469H6.42188V17.2031H13.5V18.0469H6.90352C6.99922 18.1478 7.10075 18.2431 7.20759 18.3322C7.71337 18.7537 8.39062 19.0781 9 19.0781H15C15.6094 19.0781 16.2866 18.7537 16.7924 18.3322C17.0453 18.1214 17.2545 17.8889 17.3912 17.684C17.5278 17.479 17.5781 17.2969 17.5781 17.25V9C17.5781 8.95312 17.5278 8.77097 17.3912 8.56603C17.2545 8.36109 17.0453 8.12859 16.7924 7.91784C16.2866 7.49634 15.6094 7.17188 15 7.17188H9ZM2.08861 8.40802L1.84889 9.21698L4.38014 9.96698L4.61986 9.15802L2.08861 8.40802ZM21.8135 8.40928L19.376 9.15928L19.624 9.96572L22.0615 9.21572L21.8135 8.40928ZM1.5 13.0781V13.9219H4.5V13.0781H1.5ZM19.5 13.0781V13.9219H22.5V13.0781H19.5ZM19.6199 17.033L19.3801 17.842L21.9114 18.592L22.1511 17.783L19.6199 17.033ZM4.37597 17.0343L1.93847 17.7843L2.18653 18.5907L4.62403 17.8407L4.37597 17.0343ZM9.42188 19.9219V20.7656H14.5781V19.9219H9.42188ZM18.2983 20.3267L17.7017 20.9233L19.7642 22.9858L20.3608 22.3892L18.2983 20.3267ZM5.70173 20.4205L3.63923 22.483L4.23577 23.0795L6.29827 21.017L5.70173 20.4205ZM11.3419 21.375L11.2211 21.5912C10.9004 22.1661 10.8315 22.7279 10.8315 22.7279L10.7708 23.2031H13.2292L13.1685 22.7279C13.1685 22.7279 13.0996 22.1661 12.7788 21.5912L12.6581 21.375H11.342H11.3419Z" fill="black"/>
</svg>
