<svg width="24" height="24" viewBox="0 0 24 24" fill="none" xmlns="http://www.w3.org/2000/svg">
<g clip-path="url(#clip0_2066_6)">
<path d="M0.016795 0C0.220502 2.18182 0.218335 4.36364 0.016795 6.54545H2.41252C2.16547 4.38442 2.21314 2.19844 2.42768 0H0.016795ZM9.85973 0C10.0006 2.81039 10.1577 5.64156 9.8814 8.55584H12.2815C12.0106 5.72468 12.081 2.86649 12.2977 0H9.85973ZM15.9926 0C16.2418 1.63688 16.1876 3.26649 15.9709 4.88312H18.3601C18.2301 3.25558 18.2301 1.62753 18.3601 0H15.9926ZM22.3043 1.89403C22.3043 1.89403 20.0613 2.29974 19.4058 3.13351C19.2324 3.37299 19.0861 3.77351 19.2432 4.02597C19.4112 4.27532 19.8229 4.28571 20.0992 4.1974C21.0907 3.88571 22.3043 1.89403 22.3043 1.89403ZM6.58742 4.25455C6.58742 4.25455 7.23755 6.47273 8.1098 7.01299C8.35902 7.17403 8.77076 7.25195 8.99289 7.04935C9.21502 6.84675 9.17709 6.42597 9.06874 6.15584C8.64615 5.18442 6.58742 4.25455 6.58742 4.25455ZM20.7494 4.61299C20.5001 4.61818 20.2672 4.64416 20.0721 4.70649C19.7308 4.82078 19.3082 5.12727 19.3245 5.47013C19.3299 5.81299 19.7688 6.09351 20.1263 6.18701C21.4049 6.50909 24 5.32468 24 5.32468C24 5.32468 22.093 4.5974 20.7494 4.61299ZM15.9709 5.81818C16.3068 8.2961 16.3556 10.7584 15.9818 13.1948H18.3547C18.138 10.7325 18.1651 8.27013 18.3656 5.81818H15.9709ZM19.6225 6.8C19.5033 6.80519 19.3895 6.84156 19.3028 6.91948C19.0807 7.12208 19.1186 7.54286 19.227 7.81299C19.6496 8.78442 21.7083 9.71429 21.7083 9.71429C21.7083 9.71429 21.0582 7.4961 20.1859 6.95584C20.0451 6.86753 19.8554 6.8 19.6712 6.8H19.6225ZM5.80726 7.43896C5.09754 7.44935 4.55035 7.50649 4.55035 7.50649C4.55035 7.50649 6.7337 9.3039 8.05562 9.31429C8.41861 9.30909 8.92246 9.15325 9.01998 8.82597C9.13375 8.4987 8.8141 8.09351 8.50529 7.8961C7.9581 7.54286 6.96666 7.44935 6.11607 7.43896H5.80726ZM0.0325063 7.48052C0.271428 9.66753 0.244881 11.8494 0.021671 14.026H2.42823C2.21694 11.8286 2.16167 9.64156 2.41143 7.48052H0.0325063ZM9.86514 9.14286C10.0439 11.8494 10.0548 14.5818 9.86514 17.3506H12.2815C12.0106 14.5714 12.081 11.8442 12.2977 9.14286H9.86514ZM5.726 10.3169C5.726 10.3169 3.66726 11.2468 3.24468 12.2182C3.13632 12.4883 3.0984 12.9091 3.32053 13.1117C3.54265 13.3143 3.9544 13.2364 4.20362 13.0753C5.07587 12.5351 5.726 10.3169 5.726 10.3169ZM4.33906 14.0623C3.97607 14.0727 3.5264 14.2234 3.42346 14.5299C3.30969 14.8519 3.6185 15.2623 3.91648 15.4649C4.9946 16.1922 7.86058 15.9532 7.86058 15.9532C7.86058 15.9532 5.73142 14.1039 4.40949 14.0623H4.33906ZM15.9438 14.1299C16.0955 16.026 16.1389 17.9325 15.9547 19.8442H18.3331C18.0838 17.8701 18.241 15.9844 18.3656 14.1299H15.9438ZM0.0108355 14.961C0.225378 17.9844 0.158198 20.9974 0 24H2.44936C2.31445 21.0026 2.20231 17.9896 2.43419 14.961H0.0108355ZM3.7702 16.2494C3.56432 16.2545 3.36387 16.3169 3.26093 16.4727C3.10382 16.7221 3.2501 17.1273 3.42346 17.3662C4.07901 18.1974 6.32195 18.6026 6.32195 18.6026C6.32195 18.6026 5.10838 16.613 4.11693 16.3013C4.014 16.2701 3.88939 16.2494 3.7702 16.2494ZM23.2578 17.2571C23.2578 17.2571 20.3918 17.5221 19.4708 18.426C19.2216 18.6753 18.9886 19.1377 19.1674 19.4338C19.3353 19.7351 19.8609 19.7922 20.2238 19.7195C21.5133 19.4494 23.2578 17.2571 23.2578 17.2571ZM9.89223 18.2857C10.0873 20.1922 9.9139 22.1247 9.85431 24H12.3031C12.211 22.1403 11.9943 20.239 12.2598 18.2857H9.89223ZM19.7525 20.6234C19.4708 20.6234 19.1511 20.7429 19.0644 20.9818C18.9615 21.2571 19.1945 21.6156 19.422 21.813C20.2563 22.4883 22.5318 22.4156 22.5318 22.4156C22.5318 22.4156 20.9011 20.7273 19.8663 20.6286C19.8283 20.6234 19.7904 20.6234 19.7525 20.6234ZM15.9601 20.7792C16.0739 21.8338 16.1389 22.9091 15.9926 24H18.3114C18.1597 22.9039 18.2355 21.8286 18.3493 20.7792H15.9601Z" fill="black"/>
</g>
<defs>
<clipPath id="clip0_2066_6">
<rect width="24" height="24" fill="white"/>
</clipPath>
</defs>
</svg>
