<svg width="24" height="24" viewBox="0 0 24 24" fill="none" xmlns="http://www.w3.org/2000/svg">
<g clip-path="url(#clip0_2066_10)">
<path d="M7.16042 0C-2.13023 5.42441 9.78751 11.5602 6.64555 16.9053C4.87307 19.9206 0.889548 15.4646 1.17452 10.4587C-1.34095 16.8846 0.490387 21.4796 3.77513 23.9714C3.84516 23.9887 4.66324 23.9967 5.85612 24C4.41722 23.1407 4.23624 20.1684 7.51406 18.75L8.31137 18.3941L8.16297 19.2553C8.09446 19.6794 8.1469 19.9646 8.223 20.1165C8.29909 20.2684 8.37993 20.2967 8.51827 20.3247C8.79491 20.3806 9.37536 20.2029 9.84612 19.5811C10.7877 18.3375 11.3173 15.5017 8.48826 11.0896L8.28141 10.7623L7.57878 9.78346L8.75353 10.2871L9.01879 10.3761C13.1039 11.6726 15.8551 13.3486 17.842 16.1076C18.9306 14.9429 19.7974 13.2177 20.0557 11.4454L20.2325 10.0487L20.9115 11.2675C22.2012 13.5965 22.4408 16.6021 21.4721 19.2252C20.7531 21.1716 19.3481 22.9035 17.2278 23.9794C17.9161 23.9789 18.443 23.981 18.5036 23.9857C26.3231 22.2177 25.5443 11.5305 17.7866 3.94708C17.7873 3.984 17.7866 4.02132 17.7866 4.05834C21.7764 13.5094 10.8915 13.6738 11.7613 4.64156C9.65508 9.74985 5.04835 4.53239 7.16037 5.08195e-05L7.16042 0ZM12.5604 15.8104C13.243 16.6141 13.6896 17.4927 13.7114 18.3941C13.741 19.6159 13.2418 20.79 12.4719 21.7786C11.7225 22.741 10.7117 23.539 9.61086 23.9984C11.2847 23.9951 12.8914 23.9903 14.4219 23.9857L14.4187 23.9763C15.9825 23.0313 16.8092 22.0018 17.1345 21.0366C17.4599 20.0714 17.2988 19.1427 16.8393 18.3052C16.0591 16.883 14.3278 15.8793 12.5604 15.8105V15.8104Z" fill="black"/>
</g>
<defs>
<clipPath id="clip0_2066_10">
<rect width="24" height="24" fill="white"/>
</clipPath>
</defs>
</svg>
