<svg width="24" height="24" viewBox="0 0 24 24" fill="none" xmlns="http://www.w3.org/2000/svg">
<g clip-path="url(#clip0_2066_2)">
<path d="M14.3996 12.6314C14.3996 13.3014 14.1468 13.944 13.6967 14.4178C13.2466 14.8916 12.6361 15.1577 11.9996 15.1577C11.3631 15.1577 10.7526 14.8916 10.3026 14.4178C9.85247 13.944 9.59961 13.3014 9.59961 12.6314C9.59961 11.9614 9.85247 11.3188 10.3026 10.845C10.7526 10.3713 11.3631 10.1051 11.9996 10.1051C12.6361 10.1051 13.2466 10.3713 13.6967 10.845C14.1468 11.3188 14.3996 11.9614 14.3996 12.6314Z" stroke="black" stroke-width="1.5" stroke-linejoin="round"/>
<path d="M12 19.6901C11.8624 19.9259 11.7116 20.1625 11.5476 20.4C9.9708 22.6699 7.7952 24.005 6 24L5.6376 21.3789L3.144 21.8286C2.5848 20.0438 3.1788 17.3899 4.7544 15.1187C2.322 14.2307 0.5304 12.5015 0 10.7368L2.232 9.56084L1.0728 7.20379C2.4972 6.08842 5.304 5.95326 7.8108 6.8261C7.8108 3.78947 8.8032 1.09895 10.2468 0L12 1.89474L13.752 0C15.1968 1.09895 16.2024 3.78947 16.188 6.8261C18.696 5.95453 21.5028 6.08842 22.9272 7.20379L21.7692 9.56084L24 10.7368C23.4696 12.5002 21.678 14.2295 19.2456 15.12C20.8212 17.3899 21.4152 20.0438 20.856 21.8286L18.3624 21.3789L18 24C16.2048 24.005 14.0292 22.6699 12.4524 20.4C12.2922 20.1702 12.1412 19.9333 12 19.6901Z" stroke="black" stroke-width="1.5" stroke-linejoin="round"/>
</g>
<defs>
<clipPath id="clip0_2066_2">
<rect width="24" height="24" fill="white"/>
</clipPath>
</defs>
</svg>
