<svg width="24" height="24" viewBox="0 0 24 24" fill="none" xmlns="http://www.w3.org/2000/svg">
<g clip-path="url(#clip0_2066_14)">
<path d="M14.608 0L11.2358 1.07425L10.5063 4.45073L12.5065 6.1937C11.8663 6.1398 11.2213 6.18689 10.5965 6.33317L11.223 8.19205C10.907 8.25328 10.5999 8.35161 10.3083 8.48487L9.68187 6.62594C9.08913 6.86775 8.54004 7.20032 8.05548 7.61103L8.60761 5.05681L5.96654 2.75467L2.59438 3.82752L1.86488 7.2039L4.50594 9.506L7.06167 8.69325C6.71104 9.18787 6.4358 9.74339 6.25322 10.3455L8.22436 10.7495C8.17334 10.8959 8.12902 11.0455 8.09552 11.2006C8.06233 11.3541 8.03867 11.5094 8.02467 11.6656L6.05353 11.2617C5.97032 11.8869 5.9926 12.5211 6.11949 13.1393L4.10172 11.3791L0.729501 12.4534L0 15.8283L2.64107 18.1319L6.01328 17.0592L6.57211 14.4705C6.84543 15.0369 7.21022 15.5572 7.65265 16.0115L8.99581 14.5534C9.20726 14.7895 9.44733 14.9999 9.71077 15.1799L8.36937 16.6363C8.87425 17.0107 9.43748 17.3041 10.0377 17.5055L7.47873 18.3198L6.74928 21.6963L9.39034 24L12.7626 22.9257L13.4921 19.5508L11.4903 17.8046C12.1294 17.8583 12.7733 17.8113 13.397 17.6653L12.7721 15.8093C13.0886 15.7486 13.3962 15.6508 13.6884 15.518L14.3133 17.3738C14.9081 17.1311 15.4589 16.7969 15.9446 16.384L15.3906 18.943L18.0334 21.2451L21.4039 20.1724L22.1334 16.796L19.4924 14.4939L16.9301 15.3098C17.2902 14.8031 17.5647 14.2438 17.7435 13.6529L15.7787 13.2505C15.8298 13.1041 15.8741 12.9529 15.9076 12.7979C15.9411 12.6426 15.9629 12.4885 15.9768 12.3344L17.9415 12.7368C18.0243 12.111 18.0014 11.4762 17.8739 10.8575L19.8981 12.6209L23.2689 11.5466L24 8.17171L21.3574 5.86796L17.9867 6.9408L17.4263 9.53105C17.1524 8.96324 16.7865 8.44192 16.3426 7.98704L15.0027 9.44185C14.7902 9.20558 14.549 8.99524 14.2844 8.81542L15.6258 7.36061C15.1217 6.98766 14.5596 6.6953 13.9607 6.49454L16.5197 5.68018L17.2491 2.30375L14.608 0ZM11.3099 9.49036L13.8817 10.1606L14.571 12.6616L12.6885 14.4922L10.1166 13.822L9.42729 11.3211L11.3098 9.49041L11.3099 9.49036Z" fill="black"/>
</g>
<defs>
<clipPath id="clip0_2066_14">
<rect width="24" height="24" fill="white"/>
</clipPath>
</defs>
</svg>
