<svg width="24" height="24" viewBox="0 0 24 24" fill="none" xmlns="http://www.w3.org/2000/svg">
<g clip-path="url(#clip0_2066_8)">
<path d="M18.6253 0C18.5914 1.22172 18.218 2.47295 17.5155 3.60505C15.6418 6.62546 11.8766 7.96265 8.41941 7.11296C8.67988 6.99704 8.93119 6.87059 9.17111 6.73194C11.1245 5.6029 12.0361 3.94929 11.8875 2.13108C11.518 3.2257 10.6562 4.2042 9.37586 4.9443C6.97288 6.33327 3.47381 6.53434 0 5.79414V7.6696C2.05254 8.07987 4.10538 8.15133 5.92971 7.84372C5.94796 7.85627 5.96602 7.86896 5.98442 7.88136L5.98907 7.87985L6.15312 7.98643C7.78789 9.05953 10.1519 9.25778 12.3422 8.80336C14.5327 8.34903 16.519 7.23404 17.3999 5.92591L17.5999 5.6296L17.9375 5.74401C19.893 6.41411 21.7354 6.60188 23.8921 6.49369C23.928 6.49088 23.9642 6.48877 24 6.48581V4.52254C22.1563 4.70293 20.2384 4.56077 18.4282 4.06931C18.9033 2.73153 18.9533 1.326 18.6252 0.0001004L18.6253 0ZM15.4635 8.71078C14.5734 9.165 13.5708 9.50663 12.5314 9.72225C10.9642 10.0474 9.30089 10.0779 7.7958 9.69565L11.839 14.4172L7.18479 15.4396L22.1714 24L16.7028 15.1667L19.6067 14.4156L15.4635 8.71068V8.71078Z" fill="black"/>
</g>
<defs>
<clipPath id="clip0_2066_8">
<rect width="24" height="24" fill="white"/>
</clipPath>
</defs>
</svg>
