<svg width="200" height="180" viewBox="0 0 200 180" fill="none" xmlns="http://www.w3.org/2000/svg">
<path d="M103.825 2.27881C101.599 4.7855 100.524 5.24126 101.292 3.2663C101.599 2.58266 99.9867 3.87397 97.684 6.30469C94.1532 9.95078 93.4624 11.0902 93.0787 14.2046C92.7716 16.6353 93.0019 18.4583 93.6927 19.7497L94.7673 21.6487L94.844 19.3699C94.844 17.3949 95.1511 17.6987 96.763 21.6487C97.8375 24.1554 98.6819 26.4342 98.6819 26.662C98.6819 26.8899 96.5327 28.0293 93.9997 29.3207C88.4733 31.9033 87.936 32.8908 87.936 41.0185C87.936 46.4117 87.0917 50.2097 83.5609 61.072C83.1771 62.1355 83.3306 62.3633 84.1749 61.9835C84.789 61.6797 84.6355 61.9076 83.7912 62.5912C83.0236 63.1989 82.6398 64.0345 82.8701 64.4143C83.1003 64.87 82.7933 65.3258 82.1793 65.6296C81.5652 65.8575 81.0279 66.6931 81.0279 67.4527C81.0279 70.1113 77.8042 78.315 75.348 81.8851C73.9664 83.8601 72.6616 86.0629 72.3545 86.8225C71.894 87.9619 71.587 88.0379 70.2054 87.3542C67.7492 85.987 66.2141 86.9744 66.8281 89.5571C67.2886 91.684 66.9816 91.9119 56.6963 97.9887C38.7353 108.699 14.3269 120.701 0.434002 125.562C-0.71738 125.866 0.721965 126.151 1.29756 126.151C1.87315 126.151 6.93486 126.124 7.91773 125.562C11.3717 123.587 15.831 121.262 19.3928 119.637C27.9895 115.687 27.2987 116.523 18.4717 120.853C14.2501 122.904 11.2566 124.575 11.7939 124.575C15.0944 124.575 46.9483 108.623 61.4552 99.5838C69.1308 94.7983 70.0519 94.4185 71.2032 95.482C72.8918 97.0012 74.3502 96.0137 73.8896 93.6589C73.6594 92.3676 73.8129 92.0638 74.3502 92.5955C75.5015 93.7349 77.4204 93.6589 76.7296 92.5195C76.4226 92.0638 76.4993 91.9119 77.0366 92.2157C78.3415 92.9753 83.4841 89.6331 83.1771 88.1898C82.9468 87.4302 84.1749 86.0629 86.3241 84.5437C88.1663 83.1764 89.7781 82.113 89.9317 82.2649C90.0084 82.3409 89.4711 84.7716 88.7036 87.734C86.6311 95.8618 85.8636 105.889 86.0171 123.207C86.0171 131.943 85.7868 139.007 85.4798 139.007C85.1728 139.007 84.8657 139.767 84.8657 140.678C84.8657 141.666 84.0214 145.616 82.9468 149.566C81.8723 153.516 81.1047 156.782 81.1815 156.858C81.335 157.01 82.8701 157.769 84.5587 158.605C87.3987 160.048 87.7825 160.58 88.0895 163.163C88.243 164.834 88.1663 166.885 87.936 167.72C87.5522 169.315 81.1815 174.557 77.8042 176C75.1177 177.215 75.041 178.355 77.6507 179.266C80.0301 180.178 98.4516 180.254 98.9889 179.418C99.2192 179.038 98.9121 177.519 98.3748 175.924C97.3003 172.809 97.4538 163.466 98.6051 162.327C98.9889 161.947 100.985 161.339 103.057 160.96C105.053 160.58 108.737 159.061 111.193 157.541C116.259 154.427 118.945 154.503 120.174 157.617C120.557 158.681 121.632 160.504 122.476 161.643C123.321 162.783 124.242 165.441 124.472 167.72C124.856 171.594 124.856 171.822 121.939 174.405C119.099 176.987 119.099 177.139 120.481 178.203C121.555 178.962 124.165 179.266 129.154 179.266C136.83 179.266 137.06 179.114 135.602 175.316C134.297 172.05 133.299 167.492 132.838 163.163C132.531 159.289 132.608 158.833 134.066 158.377C135.678 157.845 135.755 156.478 134.373 153.212C133.529 151.161 135.371 151.617 137.981 154.199C139.439 155.642 141.128 156.554 142.663 156.63C150.185 157.086 150.185 157.086 149.725 155.794C149.418 155.111 149.034 153.516 148.804 152.3C148.343 149.414 151.183 145.008 154.177 144.021C157.017 143.033 160.317 145.388 160.931 148.958L161.392 151.541L162.236 149.414C164.615 143.793 161.622 138.4 152.872 132.702L149.878 130.728L151.951 129.892C153.793 129.208 154.637 129.436 158.475 131.791C167.532 137.336 173.903 133.766 178.124 121.005C179.967 115.156 182.193 113.712 188.487 114.092C191.25 114.32 194.934 115.156 196.776 116.067C198.542 116.903 200 117.283 200 116.979C200 115.839 192.171 108.319 188.18 105.585C186.107 104.217 182.653 102.394 180.504 101.635C177.127 100.343 153.562 95.1781 148.88 94.6464C146.885 94.4185 128.617 85.7591 125.47 83.4803C124.165 82.5688 123.532 81.7522 123.052 81.1445C122.74 80.7497 122.476 80.0051 122.476 79.4354C122.764 77.4414 122.764 78.6188 123.628 76.8717C123.915 75.4855 124.682 75.4394 124.779 74.8778C125.067 73.2067 126.007 73.0231 126.698 72.542C128.77 71.0988 131.226 68.8959 132.224 67.6806L134.066 65.4017L132.301 55.6788C131.38 50.3616 130.536 43.905 130.459 41.3224C130.459 38.7397 130.152 36.309 129.845 35.7773C129.154 34.6379 124.549 31.5995 118.331 28.1053C115.798 26.662 113.649 24.9909 113.649 24.4592C113.649 23.9275 112.882 22.864 112.037 22.1804C110.579 21.041 110.426 20.4333 110.886 16.9391C111.193 14.7363 111.116 12.4575 110.809 11.7738C109.965 10.3306 110.886 10.3306 113.112 11.8498C114.033 12.4575 114.801 13.6728 114.801 14.4325C114.801 15.1921 116.566 17.6987 118.715 19.9016C120.864 22.1044 121.862 22.94 121.018 21.7246C120.097 20.5093 119.406 19.2179 119.406 18.8381C119.406 18.2304 126.237 21.3448 128.694 23.0919C129.308 23.5477 128.694 22.7881 127.158 21.4208L124.549 18.9901L126.775 18.9141L129.001 18.8381L126.544 18.2305C123.09 17.4709 121.939 16.3314 119.636 11.8498L117.717 7.97583L120.557 10.6344C123.167 13.0652 123.321 13.0652 122.092 11.1662C121.325 10.0268 119.636 8.2037 118.331 7.21622L115.952 5.31723L118.255 5.24125C119.79 5.16529 120.097 5.01338 119.022 4.7855C118.178 4.63357 115.952 3.87398 114.033 3.19034L110.579 1.89902L112.882 1.44325L115.184 0.911532L113.035 0.835573C111.884 0.835573 109.658 1.29134 108.123 1.89902C104.592 3.41822 104.285 3.34225 105.974 1.5192C106.741 0.683642 106.972 5.82182e-06 106.511 5.82182e-06C106.127 5.82182e-06 104.822 0.987488 103.825 2.27881ZM98.4516 40.5628C99.91 43.4492 99.3727 42.9935 96.6862 39.1195C95.6116 37.4484 95.2278 36.6128 95.9186 37.2205C96.6862 37.7522 97.7608 39.2714 98.4516 40.5628ZM125.93 43.2214C124.318 46.4877 123.704 46.1838 125.316 42.9175C126.007 41.4743 126.698 40.4108 126.928 40.5628C127.082 40.7147 126.621 41.93 125.93 43.2214ZM91.3133 47.5511C91.5435 48.1588 91.4668 48.4626 91.0062 48.2347C90.5457 48.0069 90.2387 47.4751 90.2387 47.0194C90.2387 45.9559 90.776 46.1838 91.3133 47.5511ZM130.229 53.7798C129.845 54.4635 128.77 55.7548 127.772 56.5904C126.468 57.7298 126.621 57.35 128.31 55.299C130.766 52.1847 131.38 51.6529 130.229 53.7798ZM122.783 60.4643C123.551 62.4393 123.321 63.3508 121.171 66.6931C119.176 69.7315 117.257 71.0988 118.101 68.82C118.331 68.2882 118.178 67.4527 117.794 67.0729C117.257 66.5411 117.794 65.0979 119.176 62.8191C121.478 59.0211 122.092 58.6413 122.783 60.4643ZM109.197 61.2239C108.967 61.4518 108.276 61.5278 107.739 61.2999C107.125 61.072 107.355 60.8441 108.2 60.8441C109.044 60.7682 109.504 60.9961 109.197 61.2239ZM113.573 66.769C113.88 67.1488 113.342 67.3008 112.498 67.0729C110.733 66.6171 110.502 66.0854 112.037 66.0854C112.651 66.0854 113.342 66.3892 113.573 66.769ZM90.8527 74.517C90.2387 76.7198 89.2408 78.0871 87.2452 79.4544C81.8723 83.0245 81.8723 81.2015 87.2452 75.5045C89.4711 73.2256 91.3133 71.4026 91.39 71.4026C91.5435 71.4026 91.2365 72.7699 90.8527 74.517ZM132.992 94.7983C137.52 98.9762 137.751 99.28 134.757 97.305C130.843 94.7224 124.088 88.0379 119.867 82.4168C117.564 79.4544 118.101 79.8342 122.323 84.3158C125.316 87.4302 130.152 92.1397 132.992 94.7983ZM92.3111 87.5062C92.0808 88.1138 91.8506 87.886 91.8506 87.0504C91.7738 86.2148 92.0041 85.7591 92.2343 86.0629C92.4646 86.2908 92.5414 86.9744 92.3111 87.5062ZM93.0787 90.5446C92.8484 91.1523 92.6181 90.9244 92.6181 90.0888C92.5414 89.2532 92.7716 88.7975 93.0019 89.1013C93.2322 89.3292 93.3089 90.0129 93.0787 90.5446ZM123.244 91.608C123.244 91.3801 124.625 92.0638 126.314 93.1272C128.003 94.2666 129.384 95.482 129.384 95.7858C129.384 96.1656 129.768 96.3935 130.229 96.2416C130.689 96.1656 131.226 96.5454 131.38 97.0772C131.457 97.6089 131.38 97.6848 131.15 97.2291C130.996 96.8493 130.459 96.6214 130.152 96.8493C129.768 97.0772 128.77 96.6214 127.926 95.7858C127.082 94.9503 126.237 94.4945 126.007 94.7224C125.777 94.9503 125.393 94.5705 125.086 93.8868C124.856 93.2032 124.318 92.8234 124.011 93.0513C123.628 93.2791 122.63 92.3676 121.709 91.0003C120.097 88.6456 120.097 88.5696 121.632 90.3167C122.553 91.3042 123.244 91.8359 123.244 91.608ZM134.373 99.4319C133.913 99.8117 132.455 98.6723 132.455 97.9127C132.455 97.5329 132.915 97.6089 133.529 98.1406C134.143 98.6723 134.45 99.28 134.373 99.4319ZM160.701 102.091C161.468 103.002 160.701 102.698 158.935 101.407C154.637 98.3685 153.87 97.5329 156.863 99.204C158.245 99.9636 160.01 101.331 160.701 102.091ZM144.582 103.23C149.648 105.813 148.343 105.737 142.433 103.078C139.056 101.635 137.444 100.495 137.981 100.192C138.518 99.8117 139.439 100.04 140.13 100.571C140.744 101.179 142.74 102.318 144.582 103.23ZM119.713 107.18C119.483 107.56 118.945 107.712 118.562 107.408C118.178 107.18 118.024 106.648 118.331 106.268C118.562 105.889 119.099 105.737 119.483 106.04C119.867 106.268 120.02 106.8 119.713 107.18ZM100.985 113.029C102.289 116.447 103.287 119.637 103.134 120.093C102.98 120.549 101.829 118.118 100.601 114.624C97.6073 105.813 97.6073 105.889 98.0678 106.344C98.2981 106.572 99.6029 109.535 100.985 113.029ZM128.31 116.371C130.612 118.802 131.841 120.473 131.073 120.245C130.382 120.017 131.303 121.233 133.222 122.98C136.676 126.246 136.676 126.246 133.606 123.967C127.696 119.561 118.869 109.383 119.943 108.319C120.25 108.015 121.325 108.699 122.4 109.914C123.397 111.054 126.007 114.016 128.31 116.371ZM38.0445 111.282C38.0445 111.737 29.0641 116.219 28.2965 116.219C27.9895 116.143 29.9084 115.004 32.6716 113.561C38.198 110.674 38.0445 110.75 38.0445 111.282ZM86.9382 123.967C86.7847 124.955 86.6311 124.195 86.6311 122.296C86.6311 120.397 86.7847 119.637 86.9382 120.549C87.0917 121.536 87.0917 123.056 86.9382 123.967ZM146.271 129.588C146.271 129.968 142.97 128.677 140.284 127.309C139.132 126.702 137.213 125.106 135.909 123.815C133.836 121.688 134.373 121.84 139.977 125.334C143.431 127.537 146.271 129.436 146.271 129.588ZM87.7057 129.664C87.4755 130.424 87.3219 129.968 87.3219 128.753C87.3219 127.461 87.4755 126.93 87.7057 127.385C87.8592 127.917 87.8592 128.98 87.7057 129.664ZM86.9382 141.438C86.7079 142.046 86.4776 141.818 86.4776 140.982C86.4009 140.147 86.6311 139.691 86.8614 139.995C87.0917 140.223 87.1684 140.906 86.9382 141.438Z" fill="#79c9f8"/>
<path d="M120.754 115.08C121.752 116.143 122.75 116.979 122.903 116.979C123.134 116.979 122.52 116.143 121.522 115.08C120.524 114.016 119.526 113.181 119.373 113.181C119.142 113.181 119.756 114.016 120.754 115.08Z" fill="#79c9f8"/>
<path d="M123.057 117.966C123.057 118.118 124.208 119.181 125.59 120.473L128.046 122.676L125.82 120.169C123.671 117.89 123.057 117.358 123.057 117.966Z" fill="#79c9f8"/>
</svg>
