<svg width="50" height="440" viewBox="0 0 50 440" fill="none" xmlns="http://www.w3.org/2000/svg">
<path fill-rule="evenodd" clip-rule="evenodd" d="M32.1113 0.21066C33.4407 -0.4484 35 0.518856 35 2.00265V311.105H42.5635C46.6705 311.105 50 314.435 50 318.542C49.9999 322.649 46.6704 325.978 42.5635 325.978H34.999C34.9991 325.992 35 326.006 35 326.02V435.002C35 437.763 32.7614 440.002 30 440.002H20C17.2386 440.002 15 437.763 15 435.002V326.02C15 326.006 15.0009 325.992 15.001 325.978H7.43652C3.32958 325.978 6.31381e-05 322.649 0 318.542C0 314.435 3.32954 311.105 7.43652 311.105H15V14.8982C15 11.0982 17.154 7.62603 20.5586 5.9382L32.1113 0.21066Z" fill="#F8F8FF"/>
</svg>
