<svg width="40" height="130" viewBox="0 0 40 130" fill="none" xmlns="http://www.w3.org/2000/svg">
<path d="M40 63.0596L24 77.6123V111.149C27.446 112.683 29.8496 116.135 29.8496 120.15C29.8496 125.59 25.4398 130 20 130C14.5602 130 10.1504 125.59 10.1504 120.15C10.1504 116.135 12.554 112.683 16 111.149V77.6123L0 63.0596L20 0L40 63.0596ZM20 114.24C16.7361 114.24 14.0898 116.887 14.0898 120.15C14.0898 123.414 16.7361 126.061 20 126.061C23.2639 126.061 25.9102 123.414 25.9102 120.15C25.9102 116.887 23.2639 114.24 20 114.24Z" fill="#F8F8FF"/>
</svg>
