<svg width="100" height="100" viewBox="0 0 100 100" fill="none" xmlns="http://www.w3.org/2000/svg">
<g clip-path="url(#clip0_2057_5)">
<path d="M64.2336 25.8872C72.5259 39.288 93.3794 14.3759 97.6298 3.23562C109.579 47.5104 72.5259 63.5706 71.1793 67.4723C72.5962 81.0126 81.2398 90.5573 96.8425 98.0165C77.4771 103.842 50.2394 96.7567 34.9675 74.2425C27.9425 63.8868 6.01578 84.0485 2.69137 96.9143C-4.02289 74.7575 3.16363 63.2214 9.64332 51.8024C17.1433 38.5854 29.614 37.0858 28.6695 28.8989C27.3605 17.5544 14.2841 5.95769 2.84879 2.60594C25.7105 -6.44309 54.4921 10.1446 64.2336 25.887M59.3457 51.5059C59.3457 43.5548 50.6793 38.5587 43.7834 42.5341C36.8875 46.5095 36.8877 56.5024 43.7834 60.4778C50.6793 64.4534 59.3459 59.4569 59.3459 51.5059" fill="#F8F8FF"/>
</g>
<defs>
<clipPath id="clip0_2057_5">
<rect width="100" height="100" fill="white"/>
</clipPath>
</defs>
</svg>
