<svg width="24" height="24" viewBox="0 0 24 24" fill="none" xmlns="http://www.w3.org/2000/svg">
<g clip-path="url(#clip0_2061_18)">
<path d="M15.1717 0C11.4603 0.748636 14.1831 3.68247 11.3531 5.58896C11.602 5.56379 11.8537 5.5529 12.1059 5.55691C12.9425 5.57026 13.7898 5.74798 14.6018 6.10753C14.8537 6.21862 15.0981 6.34567 15.3338 6.48788C15.9557 4.04931 13.428 1.53739 15.1716 5.14341e-05L15.1717 0ZM5.75602 1.27127C3.66242 4.42283 7.65567 4.57554 7.00961 7.91807C7.90371 6.82632 9.12428 6.07409 10.459 5.74469C9.17461 3.5803 5.61025 3.59135 5.75602 1.27127ZM21.0272 5.1444C19.3555 5.18919 18.6915 7.52329 16.0658 7.00482C17.1624 7.89958 17.9166 9.1236 18.2471 10.4622C20.4201 9.18215 20.4071 5.60996 22.7302 5.75594C22.0404 5.29777 21.4944 5.13187 21.0271 5.14445L21.0272 5.1444ZM11.886 6.51357C10.6709 6.53719 9.496 6.9666 8.55213 7.7271L9.51043 9.58423L7.46388 8.90843C7.277 9.18332 7.1153 9.4745 6.98075 9.77844C6.53254 10.7907 6.41564 11.8633 6.58113 12.878L8.88122 12.9871L7.13484 14.5441C7.68947 15.6033 8.5943 16.4883 9.77526 17.0111C9.93176 17.0805 10.0914 17.1427 10.2536 17.1974L11.5136 15.2327L11.9807 17.4831C13.383 17.487 14.7409 16.9496 15.7608 15.9839L14.7753 14.077L16.748 14.7272C16.8428 14.5616 16.929 14.3912 17.0064 14.2167C17.507 13.0862 17.5948 11.8798 17.3371 10.764L15.4045 10.6741L16.8266 9.40451C16.2704 8.36725 15.3763 7.50043 14.2135 6.9856C14.1435 6.95468 14.0729 6.92523 14.0017 6.89726L12.6727 8.96791L12.1639 6.51526C12.1382 6.51444 12.1125 6.51408 12.0868 6.51362C12.02 6.51259 11.9527 6.51239 11.8862 6.51362L11.886 6.51357ZM5.58431 8.56655C3.44489 8.60379 1.34764 10.3564 0 8.8282C0.74853 12.5385 3.68096 9.81953 5.58755 12.6452C5.47691 11.568 5.63552 10.449 6.10427 9.38997C6.21467 9.14098 6.34068 8.89921 6.48154 8.66609C6.1825 8.59059 5.88356 8.56141 5.58421 8.5666L5.58431 8.56655ZM18.3997 11.3387C18.5172 12.4543 18.3395 13.5813 17.8845 14.6067L17.8748 14.626C17.7659 14.8693 17.6421 15.1057 17.504 15.3338C19.945 15.9627 22.461 13.4262 24 15.1716C23.2499 11.4535 20.3059 14.1937 18.3997 11.3386V11.3387ZM5.74472 13.544C3.58111 14.8288 3.59112 18.3913 1.27126 18.2454C4.42615 20.3412 4.57511 16.3386 7.92775 16.9951C6.83143 16.1021 6.0771 14.8806 5.74477 13.544H5.74472ZM16.9968 16.056C16.1027 17.1583 14.8787 17.9175 13.5377 18.2503C14.8189 20.4211 18.3914 20.4078 18.2455 22.7302C20.3446 19.5703 16.3244 19.4245 16.9968 16.056ZM8.66611 17.5152C8.04732 19.9528 10.571 22.4632 8.82821 24C12.5421 23.2507 9.81415 20.3126 12.6533 18.406C11.5726 18.5192 10.4499 18.3598 9.38685 17.8892C9.13901 17.7797 8.89829 17.6549 8.66611 17.5152Z" fill="black"/>
</g>
<defs>
<clipPath id="clip0_2061_18">
<rect width="24" height="24" fill="white"/>
</clipPath>
</defs>
</svg>
